<svg version="1.2" xmlns="http://www.w3.org/2000/svg" viewBox="0 0 1080 1080" width="1080" height="1080">
	<title>New Project</title>
	<style>
		.s0 { fill: #805010;stroke: #805010;stroke-miterlimit:10;stroke-width: 9 } 
	</style>
	<g id="Layer 1">
		<path id="Shape 1 copy 5" fill-rule="evenodd" class="s0" d="m572.9 470.9c0 0-6.5 6.5 1.9 39.6 19.3 75.8 49.8 90.1 53.6 111.4 3 17-33.1 20.7-22.7 45.5 19.4 46.1-4.9 41.7-14.8 47.7-9.9 6 34.7 0.4 6.8 40.9-25.3 36.8 32.1 41.4 7.1 98.9-31.3 72-141.8-39.6-130.9 95.4 14.1 174.9 476.4-188.6 399.9-350-76.4-161.3-112.5-276-112.5-276 0 0-24.1 157.9-73.8 194.2-49.8 36.4 82.5-311.7-256.8-484-36.8-18.7-86.4-39.6-66-21.2 27.9 25.1 93.5 207.9 3.5 363.2-216.3 373.2-178.6 367.8 45.5 632.9 224 265-225.3-357.4 159.2-538.5z"/>
	</g>
</svg>